<?xml version="1.0" encoding="UTF-8" standalone="no"?>
<!-- Created with Inkscape (http://www.inkscape.org/) -->

<svg
   width="9.4054585mm"
   height="9.4059277mm"
   viewBox="0 0 9.4054587 9.4059277"
   version="1.1"
   id="svg1"
   xml:space="preserve"
   xmlns:xlink="http://www.w3.org/1999/xlink"
   xmlns="http://www.w3.org/2000/svg"
   xmlns:svg="http://www.w3.org/2000/svg"
   xmlns:rdf="http://www.w3.org/1999/02/22-rdf-syntax-ns#"
   xmlns:cc="http://creativecommons.org/ns#"
   xmlns:dc="http://purl.org/dc/elements/1.1/"><title
     id="title3">sillage_perfum</title><defs
     id="defs1"><linearGradient
       id="linearGradient1"><stop
         style="stop-color:#d4a414;stop-opacity:1;"
         offset="0"
         id="stop1" /><stop
         style="stop-color:#f5db8f;stop-opacity:1;"
         offset="1"
         id="stop2" /></linearGradient><linearGradient
       xlink:href="#linearGradient1"
       id="linearGradient2"
       x1="97.174644"
       y1="220.31342"
       x2="142.86453"
       y2="61.444332"
       gradientUnits="userSpaceOnUse"
       gradientTransform="matrix(0.05368882,0,0,0.05368882,93.902207,132.41498)" /></defs><g
     id="layer1"
     transform="translate(-94.52694,-135.22451)"><path
       style="fill:#000000;stroke-width:0.0487849"
       d="m 98.861519,144.62579 c -0.02485,-0.003 -0.103261,-0.0114 -0.174253,-0.0191 -1.253874,-0.13454 -2.448334,-0.81725 -3.216291,-1.83832 -0.497649,-0.66167 -0.800585,-1.40761 -0.914724,-2.25239 -0.02771,-0.20508 -0.03876,-0.7362 -0.02002,-0.96162 0.09897,-1.1901 0.623642,-2.2725 1.492048,-3.07813 0.655744,-0.60834 1.477872,-1.02017 2.355653,-1.18003 0.373597,-0.068 0.902811,-0.0907 1.277863,-0.0548 0.793915,0.0761 1.494525,0.32064 2.149135,0.75013 1.0732,0.70412 1.80859,1.8042 2.04518,3.0594 0.0517,0.2743 0.0667,0.42772 0.0741,0.75793 0.008,0.37014 -0.005,0.58591 -0.0556,0.89425 -0.29425,1.79674 -1.6102,3.26519 -3.3704,3.761 -0.19506,0.0549 -0.44513,0.10611 -0.674665,0.13804 -0.141097,0.0196 -0.851992,0.0369 -0.968079,0.0236 z"
       id="path1" /><path
       d="m 98.736752,143.36676 c 0.222572,-0.0248 0.424272,-0.0571 0.437098,-0.0699 0.01521,-0.0152 -0.0084,-0.0237 -0.219618,-0.0788 -1.001714,-0.26136 -1.79202,-0.69853 -2.277935,-1.26007 -0.402004,-0.46458 -0.612727,-0.97264 -0.6678,-1.6101 -0.04286,-0.49608 0.06136,-1.13847 0.267834,-1.65086 0.0307,-0.0762 0.05047,-0.1385 0.04394,-0.1385 -0.0158,0 -0.163163,0.22144 -0.236776,0.3558 -0.138105,0.25207 -0.248625,0.59275 -0.29516,0.90983 -0.03568,0.24314 -0.02237,0.69586 0.02731,0.92907 0.118726,0.55726 0.389752,1.06401 0.789332,1.47584 0.289354,0.29822 0.581049,0.51125 0.945641,0.69061 0.329192,0.16195 0.652288,0.26084 1.04408,0.31957 0.256446,0.0384 0.19339,0.0454 -0.129116,0.0143 -1.243422,-0.12008 -2.115628,-0.57009 -2.643448,-1.36387 -0.174196,-0.26196 -0.316062,-0.59554 -0.40174,-0.94464 -0.08028,-0.32711 -0.09999,-0.51188 -0.09999,-0.93754 0,-0.33997 0.008,-0.46117 0.04485,-0.68185 0.01525,-0.0913 -0.01936,-0.0273 -0.0788,0.14575 -0.366372,1.06628 -0.08037,2.23565 0.741487,3.03174 0.519498,0.50321 1.199114,0.81513 1.927514,0.88467 0.17749,0.0169 0.52466,0.008 0.781285,-0.021 z m 1.889288,1e-5 c 1.03817,-0.1528 1.92694,-0.7879 2.36528,-1.6902 0.20421,-0.42034 0.29108,-0.79908 0.29108,-1.26891 0,-0.29952 -0.0291,-0.52324 -0.10103,-0.77664 -0.0416,-0.14654 -0.11667,-0.34802 -0.12968,-0.34802 -0.006,0 -0.008,0.0144 -0.004,0.032 0.0466,0.20545 0.0705,0.63754 0.0516,0.92948 -0.11717,1.80389 -1.21028,2.83466 -3.197606,3.01527 -0.257787,0.0234 -0.315848,0.0161 -0.113642,-0.0143 0.427938,-0.0644 0.722908,-0.15372 1.072488,-0.32491 0.57815,-0.2831 1.0357,-0.69057 1.35841,-1.2097 0.58226,-0.93668 0.57906,-2.10967 -0.008,-3.00139 -0.0798,-0.12117 -0.13839,-0.18694 -0.11543,-0.12958 0.23795,0.59452 0.33401,1.08816 0.31642,1.62611 -0.0122,0.37188 -0.0687,0.65979 -0.18989,0.96633 -0.35268,0.89231 -1.16109,1.54506 -2.405407,1.94224 -0.121099,0.0387 -0.301682,0.0915 -0.401296,0.11744 -0.09961,0.0259 -0.181116,0.0519 -0.181116,0.0577 0,0.0157 0.220812,0.0525 0.461668,0.0769 0.117192,0.0119 0.238647,0.0243 0.269898,0.0274 0.109203,0.0112 0.512633,-0.005 0.660543,-0.0272 z m -0.831004,-0.48115 c 0.316624,-0.0582 0.657574,-0.18351 0.909134,-0.33417 0.65629,-0.39308 1.09594,-1.01095 1.24584,-1.75086 0.0284,-0.14022 0.0326,-0.20316 0.0326,-0.48772 0,-0.36727 -0.0204,-0.51006 -0.11425,-0.80023 -0.0632,-0.19527 -0.22252,-0.51243 -0.34377,-0.68421 -0.12389,-0.1755 -0.45269,-0.50439 -0.62867,-0.62884 -0.16347,-0.1156 -0.50252,-0.29029 -0.66765,-0.344 l -0.12074,-0.0393 -0.0482,-0.10121 c -0.118272,-0.24836 -0.412391,-0.42033 -0.718879,-0.42033 -0.30442,0 -0.607951,0.17711 -0.723355,0.42208 l -0.04151,0.0881 -0.114749,0.0379 c -0.717362,0.2366 -1.324963,0.79302 -1.603691,1.46861 -0.335906,0.81417 -0.250832,1.70969 0.230897,2.43051 0.425061,0.63603 1.107174,1.05568 1.890174,1.16289 0.147631,0.0202 0.669017,0.008 0.816797,-0.0192 z m -0.674243,-0.1236 c -0.776688,-0.0748 -1.493474,-0.54199 -1.887222,-1.23014 -0.148759,-0.25998 -0.252535,-0.56507 -0.294682,-0.86633 -0.03167,-0.22635 -0.0213,-0.60427 0.02213,-0.80686 0.07274,-0.33927 0.219073,-0.67768 0.408647,-0.94503 0.122687,-0.17302 0.398574,-0.44891 0.571595,-0.57159 0.268955,-0.19071 0.60344,-0.33494 0.952336,-0.41064 0.127879,-0.0277 0.191088,-0.0323 0.453976,-0.0328 0.263337,-5.3e-4 0.327437,0.004 0.465296,0.0318 0.520711,0.10554 0.937871,0.33558 1.311851,0.72343 0.79124,0.8206 0.8976,2.07985 0.2566,3.03816 -0.49443,0.73918 -1.37373,1.1554 -2.260528,1.07003 z m 0.680473,-0.26835 c 0.413884,-0.088 0.776174,-0.27596 1.072354,-0.55626 0.34808,-0.32943 0.56298,-0.71717 0.65658,-1.18469 0.0359,-0.1791 0.0359,-0.61536 0,-0.79446 -0.0514,-0.2566 -0.15196,-0.51829 -0.27865,-0.72498 -0.072,-0.11742 -0.21823,-0.30683 -0.28966,-0.37514 l -0.0506,-0.0484 -0.0416,0.0342 c -0.0229,0.0188 -0.12378,0.10346 -0.22429,0.18809 -0.25358,0.21356 -0.50209,0.39952 -0.59981,0.44884 -0.166244,0.0839 -0.375981,0.10922 -0.541125,0.0653 -0.185213,-0.0493 -0.398304,-0.19426 -0.546175,-0.37159 -0.04473,-0.0536 -0.106064,-0.12699 -0.136296,-0.163 -0.100007,-0.11912 -0.297481,-0.2246 -0.461936,-0.24674 -0.11267,-0.0152 -0.114907,-0.0179 -0.05472,-0.0658 0.132385,-0.1055 0.466386,-0.23767 0.807839,-0.31969 l 0.170461,-0.041 -0.134949,-0.004 c -0.340273,-0.0111 -0.733974,0.11584 -1.015669,0.32744 l -0.09944,0.0747 0.09588,0.004 c 0.05274,0.002 0.09588,0.009 0.09588,0.0142 0,0.006 -0.02814,0.025 -0.06254,0.0432 -0.0778,0.0413 -0.231377,0.19478 -0.315902,0.31575 -0.138133,0.1977 -0.294142,0.52754 -0.395956,0.83716 -0.02955,0.0898 -0.05987,0.16975 -0.06738,0.17756 -0.01956,0.0203 -2.42e-4,-0.18335 0.03332,-0.35134 0.06735,-0.33712 0.22978,-0.64608 0.475308,-0.90409 l 0.118647,-0.12467 -0.08518,0.0116 c -0.113373,0.0155 -0.136248,0.0296 -0.244406,0.15052 -0.596469,0.6669 -0.722721,1.63973 -0.315359,2.43 0.329723,0.63965 0.958822,1.08108 1.683349,1.18117 0.167268,0.0231 0.585415,0.008 0.752001,-0.0278 z m 0.05059,-4.73815 c -0.291601,-0.0644 -0.776215,-0.0636 -1.071419,0.002 -0.03077,0.007 -0.03235,0.005 -0.01485,-0.016 0.04225,-0.0509 0.188445,-0.15202 0.286788,-0.19834 0.243537,-0.11472 0.481371,-0.0892 0.716145,0.0769 0.08069,0.0571 0.197499,0.16136 0.174777,0.15603 -0.0034,-8e-4 -0.04456,-0.01 -0.09144,-0.0203 z m -0.197611,-0.53661 c 0.0453,-0.0527 0.04529,-0.1233 -3.1e-5,-0.17599 l -0.03428,-0.0399 h -0.272358 -0.272358 l -0.03428,0.0399 c -0.05824,0.0677 -0.0365,0.17654 0.04181,0.20931 0.01674,0.007 0.144474,0.0113 0.283845,0.01 l 0.253402,-0.003 z m -0.185928,-0.28135 c 0.273449,-0.009 0.500377,-0.0192 0.504283,-0.0227 0.0039,-0.004 0.0071,-0.0747 0.0071,-0.15799 0,-0.13229 -0.0043,-0.15964 -0.03385,-0.21545 -0.08055,-0.15211 -0.211895,-0.25964 -0.383071,-0.31363 -0.131912,-0.0416 -0.342742,-0.0417 -0.47303,-2.7e-4 -0.171672,0.0546 -0.302905,0.1622 -0.382947,0.3139 -0.02899,0.0549 -0.03373,0.0839 -0.03374,0.20598 -9e-6,0.0834 0.0074,0.15886 0.01792,0.18278 l 0.01793,0.0407 0.131116,-0.009 c 0.07211,-0.005 0.354846,-0.0159 0.628296,-0.0248 z"
       style="fill:url(#linearGradient2);stroke-width:0.0536888"
       id="path1-4" /></g><metadata
     id="metadata3"><rdf:RDF><cc:Work
         rdf:about=""><dc:title>sillage_perfum</dc:title></cc:Work></rdf:RDF></metadata></svg>
