<?xml version="1.0" encoding="UTF-8" standalone="no"?>
<!-- Created with Inkscape (http://www.inkscape.org/) -->

<svg
   width="111.07779mm"
   height="29.273811mm"
   viewBox="0 0 111.07779 29.273811"
   version="1.1"
   id="svg1"
   xml:space="preserve"
   xmlns="http://www.w3.org/2000/svg"
   xmlns:svg="http://www.w3.org/2000/svg"
   xmlns:rdf="http://www.w3.org/1999/02/22-rdf-syntax-ns#"
   xmlns:cc="http://creativecommons.org/ns#"
   xmlns:dc="http://purl.org/dc/elements/1.1/"><title
     id="title3">sillage_perfum</title><defs
     id="defs1" /><g
     id="layer2"
     transform="translate(-45.438865,-2.8758221)"><path
       style="fill:#bb9112;fill-opacity:1"
       d="m 126.26585,31.946677 c -0.52841,-0.528414 0.12291,-2.10281 2.52483,-6.10309 1.49696,-2.493103 1.59723,-3.218964 0.35518,-2.571051 -1.96507,1.025068 -2.74119,-0.653703 -1.19292,-2.580313 1.28365,-1.597329 0.62488,-1.847746 -0.96804,-0.367983 -0.71077,0.66028 -1.42656,1.20388 -1.59064,1.208001 -0.16409,0.0041 -0.44176,0.180314 -0.61707,0.39154 -0.96512,1.162907 -4.04815,2.087195 -4.72022,1.415119 -1.54717,-1.547162 1.81436,-7.090833 4.29968,-7.090833 2.03462,0 1.3043,1.901048 -1.41656,3.687341 -2.02089,1.326757 -2.5942,2.087554 -1.89753,2.518114 0.82393,0.509221 6.4395,-3.491106 7.33695,-5.226581 0.65564,-1.267867 1.03389,-1.569318 1.40621,-1.120702 0.23344,0.281279 0.23488,0.511476 0.006,0.93934 -0.50076,0.935684 -0.1487,1.430101 0.64707,0.908695 0.63841,-0.418305 1.20702,-0.341147 1.20702,0.16379 0,0.138197 -0.65484,0.963573 -1.4552,1.83417 -2.17514,2.366 -1.93484,2.854783 0.50605,1.029372 1.45178,-1.085703 1.85804,-1.635375 5.16074,-6.982497 2.88467,-4.6703101 4.78425,-6.7389441 4.78425,-5.2100321 0,0.26318 -1.14651,2.1979451 -2.54779,4.2994791 -6.45306,9.677771 -6.77223,11.219995 -1.13301,5.474615 2.13979,-2.180066 3.15163,-2.80246 3.15163,-1.938596 0,0.20708 -0.45891,0.832158 -1.0198,1.389063 -1.18566,1.177237 -2.94895,3.455949 -2.94895,3.810945 0,0.658696 0.89874,-0.0045 3.43958,-2.538013 2.51348,-2.506253 3.70417,-3.301951 3.70417,-2.475363 0,0.164206 -0.77391,1.118938 -1.71979,2.121626 -0.95902,1.016615 -1.71979,2.061866 -1.71979,2.362892 0,0.593067 0.0255,0.584496 1.76746,-0.594768 0.6083,-0.411798 1.21185,-0.748723 1.34122,-0.748723 0.12937,0 1.17865,-0.9525 2.33173,-2.116667 2.58107,-2.605874 3.62946,-2.710177 2.34882,-0.233682 -0.76484,1.479029 -0.33662,1.627771 1.07431,0.373161 2.26661,-2.0155 3.29218,-2.151467 3.30324,-0.437936 0.004,0.603304 0.0271,0.610745 0.59936,0.192331 1.72068,-1.258048 2.14361,-1.450173 2.62506,-1.192506 0.7105,0.380247 0.61809,0.698098 -0.83912,2.886132 -1.40506,2.109734 -1.73356,3.049014 -0.74386,2.126973 0.31848,-0.29671 0.71675,-0.539473 0.88503,-0.539473 0.16829,0 0.51422,-0.230096 0.76872,-0.511323 0.49205,-0.543704 1.20678,-0.464994 1.20678,0.132897 0,0.19729 -0.69872,0.833196 -1.5527,1.413125 -3.1623,2.147474 -4.17832,1.560403 -2.82101,-1.630012 0.31268,-0.734961 -0.17064,-0.537907 -1.31484,0.536068 -1.91902,1.801252 -2.78733,2.420351 -3.18216,2.268843 -0.56633,-0.21732 -0.49675,-0.469027 0.57644,-2.085366 1.61739,-2.43597 0.88868,-2.024851 -3.17987,1.793997 -1.5207,1.427368 -1.91845,0.76089 -0.82899,-1.389062 0.3638,-0.717929 0.66146,-1.363451 0.66146,-1.434493 0,-0.07104 -0.98227,0.476676 -2.18281,1.217151 -4.08942,2.522277 -4.69636,2.740006 -4.69636,1.684743 0,-0.333434 -0.1454,-0.312636 -0.85989,0.122998 -1.14793,0.699908 -1.73541,0.662064 -2.09866,-0.135191 -0.3556,-0.780449 -0.32939,-0.777844 -1.63082,-0.162074 -0.93154,0.440758 -1.02375,0.580715 -1.09147,1.656653 -0.20331,3.230081 -4.71461,8.791558 -6.04902,7.457156 z m 3.46803,-3.903868 c 0.49712,-0.758418 0.85282,-1.642246 0.85187,-2.116666 l -0.002,-0.814535 -0.35087,0.661459 c -0.19298,0.363802 -0.72803,1.269939 -1.189,2.013637 -1.59822,2.578476 -0.98248,2.80714 0.68963,0.256105 z m -6.02567,-10.088448 c 0,-0.100973 -0.17859,-0.03537 -0.39687,0.145789 -0.21828,0.181158 -0.39687,0.442366 -0.39687,0.580463 0,0.138097 0.17859,0.07249 0.39687,-0.14579 0.21828,-0.218281 0.39687,-0.479489 0.39687,-0.580462 z M 77.14155,29.986758 c 0,-1.093347 2.44859,-4.213691 3.30656,-4.213691 0.17357,0 0.53109,-0.238125 0.79448,-0.529167 0.26339,-0.291042 0.62629,-0.529167 0.80645,-0.529167 0.18016,0 0.39983,-0.188331 0.48816,-0.418514 0.23277,-0.60658 0.21388,-0.639819 -0.36353,-0.639819 -0.3384,0 -0.58295,-0.23438 -0.69014,-0.661458 -0.20821,-0.829597 -0.33816,-0.825391 -1.98538,0.06425 -1.28422,0.693585 -1.35934,0.704312 -1.69714,0.24234 -0.33612,-0.459672 -0.39976,-0.461394 -1.29806,-0.03512 -1.06909,0.507316 -1.7285,0.368976 -1.93092,-0.405097 -0.16938,-0.647721 -0.0369,-0.658688 -1.61435,0.133627 -1.717546,0.862672 -2.430713,0.869021 -2.430713,0.02164 0,-1.356241 -0.249939,-1.536209 -1.118495,-0.805368 -1.707445,1.436721 -3.644004,1.861522 -3.644004,0.799344 0,-0.990038 -0.381993,-1.023337 -1.754469,-0.152939 -1.539238,0.976156 -1.77873,0.987594 -2.18124,0.10418 -0.619362,-1.359352 2.629883,-6.713731 4.074153,-6.713731 0.825345,0 0.819453,0.08754 -0.0723,1.074245 -1.942345,2.149168 -3.303524,5.101811 -1.972261,4.278192 2.831449,-1.751747 2.873494,-1.801197 6.013086,-7.072228 2.443186,-4.101842 4.079493,-6.2177081 4.808473,-6.2177081 0.74576,0 0.25911,1.114669 -1.68962,3.8700691 -5.166328,7.304926 -6.533651,9.700518 -5.618571,9.843913 0.30866,0.04837 0.825112,-0.159992 1.147672,-0.463021 0.322559,-0.303029 0.709173,-0.550962 0.859141,-0.550962 0.149968,0 0.480903,-0.230096 0.73541,-0.511323 0.254508,-0.281228 0.600383,-0.458925 0.768612,-0.394882 0.168228,0.06404 0.636413,-0.450003 1.040411,-1.142323 4.066555,-6.968744 6.659085,-10.6514711 7.498325,-10.6514711 0.76592,0 0.29862,1.089036 -1.66065,3.8700691 -1.1147,1.582243 -2.52981,3.59118 -3.14468,4.464305 -2.791502,3.963984 -3.637037,7.080112 -1.33407,4.916587 0.32256,-0.303029 0.70105,-0.550962 0.8411,-0.550962 0.14004,0 1.08052,-0.832273 2.08995,-1.849495 4.3655,-4.399215 7.96525,-3.854923 4.33663,0.65571 -0.89048,1.106935 -1.56463,2.067042 -1.4981,2.133571 0.23385,0.233851 3.2636,-1.956598 4.52939,-3.274664 1.85496,-1.931557 3.79484,-2.774715 4.95516,-2.15373 0.88548,0.473895 0.56889,1.257244 -1.34031,3.316314 -1.01864,1.098611 -1.85208,2.173433 -1.85208,2.388493 0,0.714985 3.04914,-1.635133 4.26585,-3.28789 1.37992,-1.874474 2.6519,-2.784039 3.68191,-2.632865 l 0.73522,0.107907 -0.14326,-1.894148 c -0.16836,-2.226143 0.47659,-3.65399 2.39044,-5.2921791 1.13249,-0.969367 6.13496,-3.562857 6.87224,-3.562857 0.23244,0 0.48808,-0.105907 0.56808,-0.23535 0.08,-0.129442 0.53351,-0.296636 1.0078,-0.371541 5.11907,-0.808456 6.40808,-0.964937 8.0061,-0.971907 15.11698,-0.06594 12.39229,13.1960331 -3.30729,16.0977121 -3.2271,0.59645 -5.33427,0.872512 -5.48782,0.718965 -0.3213,-0.321306 0.87889,-0.933731 1.846,-0.941965 1.1439,-0.0097 2.82005,-0.363148 6.28765,-1.325723 12.2769,-3.407959 12.86818,-13.4513881 0.79375,-13.4824751 -11.44148,-0.02946 -21.04483,6.5456991 -16.84114,11.5306861 0.38585,0.45757 0.70155,0.890024 0.70155,0.96101 0,0.146363 -1.55786,-0.370309 -2.02899,-0.672926 -0.20264,-0.130158 -0.37054,0.0807 -0.4872,0.611816 -0.1416,0.644717 -0.63289,1.113147 -2.40278,2.290983 -1.41064,0.938766 -2.22478,1.653958 -2.22478,1.954399 0,1.06955 0.92088,0.837117 3.50932,-0.885763 1.85615,-1.235468 2.61149,-0.740769 0.96533,0.632232 -2.52924,2.109547 -5.53298,2.683746 -5.53298,1.057694 0,-1.257311 -4.74501,1.83654 -6.10372,3.979764 -2.4897,3.927235 -5.27336,5.708491 -5.27336,3.374413 z m 1.5875,-0.641817 c 0,-0.07276 -0.0595,-0.132291 -0.13229,-0.132291 -0.0728,0 -0.13229,0.05953 -0.13229,0.132291 0,0.07276 0.0595,0.132292 0.13229,0.132292 0.0728,0 0.13229,-0.05953 0.13229,-0.132292 z m 1.04992,-1.275669 c 0.005,-0.119535 -0.17018,-0.03874 -0.38846,0.179539 -0.21828,0.218281 -0.39688,0.547198 -0.39688,0.730926 0,0.355425 0.77093,-0.538337 0.78534,-0.910465 z m -1.17244,-7.95243 c 1.49398,-1.418441 2.00947,-2.073368 1.88573,-2.395826 -0.3388,-0.88289 -4.67363,2.800535 -4.67363,3.971309 0,0.769191 0.78648,0.324742 2.7879,-1.575483 z m 6.80138,-0.09846 c 1.26601,-1.274898 1.9621,-2.169509 1.84024,-2.365093 -0.41405,-0.664588 -4.55035,3.027197 -4.55035,4.061345 0,0.748339 0.74657,0.281063 2.71011,-1.696252 z m 7.07947,-2.064018 c 0,-0.100973 -0.17859,-0.03537 -0.39687,0.145789 -0.21828,0.181158 -0.39688,0.442366 -0.39688,0.580463 0,0.138097 0.1786,0.07249 0.39688,-0.14579 0.21828,-0.218281 0.39687,-0.479489 0.39687,-0.580462 z M 99.36,28.269387 c -1.87308,-4.926563 2.92567,-12.107567 11.19456,-16.751927 1.00437,-0.56412 3.89324,-0.817285 3.89324,-0.341182 0,0.229775 -0.0847,0.275239 -2.97628,1.597683 -7.19227,3.289333 -12.43293,9.844647 -11.34006,14.184815 0.49452,1.963934 -0.12373,3.014269 -0.77146,1.310611 z M 46.122519,27.475576 c -2.822989,-1.53174 3.804482,-6.919686 7.008096,-5.697382 0.813708,0.310461 0.977389,0.819873 0.263437,0.819873 -1.489691,0 -5.995511,2.198877 -6.338759,3.093366 -0.623644,1.625192 4.068759,1.280512 6.579186,-0.483273 0.386266,-0.271385 0.802985,-0.496648 0.926042,-0.500586 0.296822,-0.0095 2.025052,-1.626405 2.570058,-2.404511 1.251198,-1.786334 -0.249199,-3.596856 -3.735381,-4.507469 -0.472943,-0.123536 -1.276615,-0.343673 -1.785937,-0.489194 -0.509323,-0.14552 -1.314838,-0.364809 -1.790034,-0.487308 -5.591283,-1.441357 -5.504988,-5.106734 0.210476,-8.9399631 1.712247,-1.148364 4.897756,-2.743561 5.478719,-2.743561 0.198347,0 0.473739,-0.09476 0.611984,-0.210571 0.138245,-0.115814 0.668073,-0.337845 1.177396,-0.493401 0.870542,-0.26588 1.457921,-0.42612 4.131738,-1.127164 5.927963,-1.554243 10.395081,1.366295 7.31149,4.780148 -0.935006,1.035148 -4.267716,2.8718211 -5.211024,2.8718211 -0.209078,0 -0.453726,0.119062 -0.543663,0.264583 -0.189073,0.305926 -1.194956,0.362225 -1.181822,0.06615 0.02306,-0.519844 1.094981,-1.3440421 2.901613,-2.2310461 4.107088,-2.016459 4.698868,-3.999771 1.401185,-4.695978 -1.120542,-0.236569 -1.734044,-0.246997 -2.278305,-0.03873 -0.409655,0.156761 -1.115577,0.285021 -1.568715,0.285021 -0.453137,0 -1.189527,0.109089 -1.636421,0.242421 -4.550571,1.357667 -4.809748,1.448845 -6.897951,2.426695 -3.389178,1.587063 -6.482291,4.3414581 -6.482291,5.7724351 0,1.255871 1.018982,1.841379 5.159374,2.964585 0.582084,0.157908 1.265078,0.394563 1.517764,0.525901 0.252687,0.131338 0.669406,0.24958 0.926042,0.262761 0.256636,0.01318 1.06013,0.344979 1.785543,0.737331 3.621271,1.958623 3.235093,5.102508 -0.969078,7.889303 -1.861022,1.233606 -2.369559,1.508749 -4.000324,2.164373 -1.079317,0.433923 -4.664879,0.358445 -5.540438,-0.11663 z M 66.571496,14.808859 c -0.426829,-0.514298 -0.249709,-1.749523 0.300226,-2.093762 1.11805,-0.699857 2.433158,1.209641 1.485662,2.157137 -0.433957,0.433957 -1.401638,0.399617 -1.785888,-0.06338 z"
       id="path2" /></g><metadata
     id="metadata3"><rdf:RDF><cc:Work
         rdf:about=""><dc:title>sillage_perfum</dc:title></cc:Work></rdf:RDF></metadata></svg>
