<?xml version="1.0" encoding="UTF-8" standalone="no"?>
<!-- Created with Inkscape (http://www.inkscape.org/) -->

<svg
   width="192.7972mm"
   height="192.80487mm"
   viewBox="0 0 192.7972 192.80487"
   version="1.1"
   id="svg1"
   xml:space="preserve"
   sodipodi:docname="Logo.svg"
   inkscape:version="1.4 (86a8ad7, 2024-10-11)"
   xmlns:inkscape="http://www.inkscape.org/namespaces/inkscape"
   xmlns:sodipodi="http://sodipodi.sourceforge.net/DTD/sodipodi-0.dtd"
   xmlns:xlink="http://www.w3.org/1999/xlink"
   xmlns="http://www.w3.org/2000/svg"
   xmlns:svg="http://www.w3.org/2000/svg"
   xmlns:rdf="http://www.w3.org/1999/02/22-rdf-syntax-ns#"
   xmlns:cc="http://creativecommons.org/ns#"
   xmlns:dc="http://purl.org/dc/elements/1.1/"><sodipodi:namedview
     id="namedview1"
     pagecolor="#ffffff"
     bordercolor="#000000"
     borderopacity="0.25"
     inkscape:showpageshadow="2"
     inkscape:pageopacity="0.0"
     inkscape:pagecheckerboard="0"
     inkscape:deskcolor="#d1d1d1"
     inkscape:document-units="mm"
     inkscape:zoom="1.7428026"
     inkscape:cx="262.79511"
     inkscape:cy="327.92009"
     inkscape:window-width="1440"
     inkscape:window-height="837"
     inkscape:window-x="1592"
     inkscape:window-y="-8"
     inkscape:window-maximized="1"
     inkscape:current-layer="layer2"
     showgrid="false" /><title
     id="title3">sillage_perfum</title><defs
     id="defs1"><pattern
       inkscape:collect="always"
       xlink:href="#shading26"
       preserveAspectRatio="xMidYMid"
       id="pattern10"
       patternTransform="matrix(0.3,0,0,0.3,219.41846,1668.9281)"
       x="0"
       y="0" /><clipPath
       clipPathUnits="userSpaceOnUse"
       id="clipPath54"><path
         id="path54"
         style="stroke-width:0.0999999;stroke-linecap:square;paint-order:markers fill stroke;stop-color:#000000"
         d="m 1691.1994,-792.32001 h 1634.8919 v 92.82806 H 1691.1994 Z" /></clipPath><pattern
       patternUnits="userSpaceOnUse"
       width="458.91419"
       height="32.1666"
       patternTransform="translate(213.95313,1661.1855) scale(0.50)"
       preserveAspectRatio="xMidYMid"
       id="shading26"
       style="fill:#5178b4"
       inkscape:label="Sombreado zigzag de líneas verticales"
       inkscape:collect="always"
       inkscape:isstock="true"><path
         style="fill-rule:nonzero;stroke:none;stroke-width:0.1;stroke-linecap:square;paint-order:markers fill stroke;stop-color:#000000"
         d="m 1805.253,-758.46472 c 2.0199,-1.6381 19.9642,8.10228 21.9841,6.46418 21.6198,-17.53283 46.2727,-37.64976 73.5246,-59.981 v 0 c 25.9809,19.65985 54.0444,40.83546 83.863,63.2885 l 10.6075,7.98549 10.4529,-7.68367 c 27.0646,-19.89942 55.5585,-40.88668 85.2364,-62.77519 v 0 c 27.7606,18.37638 56.4868,37.37105 85.989,56.86265 l 8.4807,5.6026 8.226,-5.34235 c 28.4598,-18.48466 57.6391,-37.45176 87.3659,-56.7859 v 0 c 28.9846,16.55965 58.4587,33.38981 88.2675,50.40499 l 6.2651,3.57611 6.0027,-3.36923 c 29.5517,-16.58735 59.4322,-33.36536 89.4887,-50.24537 v 0 c 30.0302,14.47678 60.2186,29.02709 90.4154,43.58131 l 4.2068,2.02761 3.9808,-1.87912 c 30.5113,-14.40273 61.0311,-28.80967 91.403,-43.14415 30.9776,12.19206 61.7896,24.32173 92.2716,36.32702 l 2.456,0.9673 2.2912,-0.87545 c 31.4044,-11.99933 62.4587,-23.85885 92.9812,-35.50596 v 0 c 31.8985,9.7531 63.2067,19.33577 93.7183,28.6884 l 1.1227,0.34414 1.0302,-0.30014 c 32.3552,-9.4259 63.8161,-18.57513 94.1348,-27.37102 33.0276,7.23306 64.6894,14.19252 94.6654,20.81424 l 0.2874,0.0635 0.2604,-0.0518 c 33.9102,-6.74391 65.6711,-13.01584 94.819,-18.71395 v 0 c 35.9763,4.87029 67.9479,9.29314 95.0397,13.17078 -27.1102,-3.88028 -59.0638,-8.60724 -94.9917,-14.02894 l -0.067,-0.0101 -0.073,0.0131 c -29.166,5.24521 -60.9646,10.90129 -94.9296,16.89548 v 0 c -29.945,-7.29193 -61.5634,-15.02639 -94.536,-23.11898 l -0.5817,-0.14278 -0.639,0.1683 c -30.3517,7.994 -61.8539,16.26941 -94.2589,24.76558 v 0 c -30.4835,-10.24387 -61.7575,-20.76785 -93.6151,-31.49861 l -1.6023,-0.53972 -1.7314,0.6061 c -30.5409,10.69114 -61.6186,21.56098 -93.0524,32.54935 v 0 c -30.4769,-13.00991 -61.279,-26.16438 -92.2405,-39.38965 l -3.0877,-1.31894 -3.2854,1.43846 c -30.361,13.29293 -60.8752,26.65035 -91.3881,40.00719 v 0 c -30.226,-15.62318 -60.4371,-31.23836 -90.4809,-46.76407 l -4.9574,-2.56184 -5.2057,2.73972 c -30.0066,15.79238 -59.8462,31.49984 -89.3693,47.04623 v 0 c -29.8816,-18.11236 -59.4157,-36.00744 -88.4434,-53.58593 l -7.0991,-4.2989 -7.365,4.53346 c -29.6279,18.23811 -58.7274,36.16094 -87.1317,53.6691 -29.6324,-20.57281 -58.4593,-40.56911 -86.2836,-59.84778 l -9.3564,-6.4819 -9.5787,6.76494 c -29.5053,20.84087 -57.8757,40.90538 -84.878,60.03398 v 0 c -30.0663,-23.44287 -58.2811,-45.39239 -84.2942,-65.56618 l -11.4535,-8.87805 -11.4711,9.19271 c -32.0177,25.67056 -60.6296,48.71345 -85.1752,68.61894 -2.0199,1.6381 3.8046,21.20709 1.7847,22.84519 z m 0,46.41401 c 2.0199,-1.6381 19.9642,8.10228 21.9841,6.46418 21.6198,-17.53283 46.2727,-37.64976 73.5246,-59.981 v 0 c 25.9809,19.65985 54.0444,40.83546 83.863,63.2885 l 10.6075,7.98549 10.4529,-7.68367 c 27.0646,-19.89942 55.5585,-40.88668 85.2364,-62.77519 v 0 c 27.7606,18.37638 56.4868,37.37105 85.989,56.86265 l 8.4807,5.6026 8.226,-5.34235 c 28.4598,-18.48466 57.6391,-37.45176 87.3659,-56.7859 v 0 c 28.9846,16.55965 58.4587,33.38981 88.2675,50.40499 l 6.2651,3.57611 6.0027,-3.36923 c 29.5517,-16.58735 59.4322,-33.36536 89.4887,-50.24537 v 0 c 30.0302,14.47678 60.2186,29.02709 90.4154,43.58131 l 4.2068,2.02761 3.9808,-1.87912 c 30.5113,-14.40273 61.0311,-28.80967 91.403,-43.14415 30.9776,12.19206 61.7896,24.32173 92.2716,36.32702 l 2.456,0.9673 2.2912,-0.87545 c 31.4044,-11.99933 62.4587,-23.85885 92.9812,-35.50596 v 0 c 31.8985,9.75309 63.2067,19.33577 93.7183,28.6884 l 1.1227,0.34414 1.0302,-0.30014 c 32.3552,-9.4259 63.8161,-18.57513 94.1348,-27.37103 33.0276,7.23307 64.6894,14.19253 94.6654,20.81425 l 0.2874,0.0635 0.2604,-0.0518 c 33.9102,-6.74391 65.6711,-13.01584 94.819,-18.71395 v 0 c 35.9763,4.87029 67.9479,9.29314 95.0397,13.17078 -27.1102,-3.88028 -59.0638,-8.60724 -94.9917,-14.02894 l -0.067,-0.0101 -0.073,0.0131 c -29.166,5.24521 -60.9646,10.90129 -94.9296,16.89548 v 0 c -29.945,-7.29193 -61.5634,-15.02639 -94.536,-23.11899 l -0.5817,-0.14277 -0.639,0.1683 c -30.3517,7.994 -61.8539,16.26941 -94.2589,24.76558 v 0 c -30.4835,-10.24387 -61.7575,-20.76785 -93.6151,-31.49861 l -1.6023,-0.53972 -1.7314,0.6061 c -30.5409,10.69114 -61.6186,21.56098 -93.0524,32.54935 v 0 c -30.4769,-13.00991 -61.279,-26.16438 -92.2405,-39.38965 l -3.0877,-1.31894 -3.2854,1.43846 c -30.361,13.29292 -60.8752,26.65035 -91.3881,40.00719 v 0 c -30.226,-15.62318 -60.4371,-31.23836 -90.4809,-46.76407 l -4.9574,-2.56184 -5.2057,2.73972 c -30.0066,15.79238 -59.8462,31.49984 -89.3693,47.04623 v 0 c -29.8816,-18.11237 -59.4157,-36.00744 -88.4434,-53.58593 l -7.0991,-4.2989 -7.365,4.53346 c -29.6279,18.23811 -58.7274,36.16094 -87.1317,53.6691 -29.6324,-20.57281 -58.4593,-40.56911 -86.2836,-59.84778 l -9.3564,-6.4819 -9.5787,6.76494 c -29.5053,20.84087 -57.8757,40.90538 -84.878,60.03398 v 0 c -30.0663,-23.44287 -58.2811,-45.39239 -84.2942,-65.56618 l -11.4535,-8.87805 -11.4711,9.19271 c -32.0177,25.67056 -60.6296,48.71345 -85.1752,68.61894 -2.0199,1.6381 3.8046,21.20709 1.7847,22.84519 z m 0,46.41401 c 2.0199,-1.6381 19.9642,8.10228 21.9841,6.46418 21.6198,-17.53283 46.2727,-37.64976 73.5246,-59.981 v 0 c 25.9809,19.65985 54.0444,40.83546 83.863,63.2885 l 10.6075,7.98549 10.4529,-7.68367 c 27.0646,-19.89942 55.5585,-40.88668 85.2364,-62.77519 v 0 c 27.7606,18.37638 56.4868,37.37105 85.989,56.86265 l 8.4807,5.6026 8.226,-5.34235 c 28.4598,-18.48466 57.6391,-37.45176 87.3659,-56.78591 v 0 c 28.9846,16.55966 58.4587,33.38982 88.2675,50.405 l 6.2651,3.57611 6.0027,-3.36923 c 29.5517,-16.58735 59.4322,-33.36536 89.4887,-50.24537 v 0 c 30.0302,14.47678 60.2186,29.02709 90.4154,43.58131 l 4.2068,2.02761 3.9808,-1.87912 c 30.5113,-14.40274 61.0311,-28.80967 91.403,-43.14415 30.9776,12.19206 61.7896,24.32173 92.2716,36.32702 l 2.456,0.9673 2.2912,-0.87545 c 31.4044,-11.99933 62.4587,-23.85885 92.9812,-35.50596 v 0 c 31.8985,9.75309 63.2067,19.33577 93.7183,28.6884 l 1.1227,0.34414 1.0302,-0.30014 c 32.3552,-9.4259 63.8161,-18.57513 94.1348,-27.37103 33.0276,7.23307 64.6894,14.19253 94.6654,20.81425 l 0.2874,0.0635 0.2604,-0.0518 c 33.9102,-6.74391 65.6711,-13.01584 94.819,-18.71395 v 0 c 35.9763,4.87029 67.9479,9.29314 95.0397,13.17078 -27.1102,-3.88028 -59.0638,-8.60724 -94.9917,-14.02894 l -0.067,-0.0101 -0.073,0.0131 c -29.166,5.24521 -60.9646,10.90129 -94.9296,16.89547 v 0 c -29.945,-7.29193 -61.5634,-15.02638 -94.536,-23.11898 l -0.5817,-0.14277 -0.639,0.1683 c -30.3517,7.994 -61.8539,16.26941 -94.2589,24.76558 v 0 c -30.4835,-10.24387 -61.7575,-20.76785 -93.6151,-31.49861 l -1.6023,-0.53972 -1.7314,0.6061 c -30.5409,10.69114 -61.6186,21.56098 -93.0524,32.54935 v 0 c -30.4769,-13.00991 -61.279,-26.16438 -92.2405,-39.38965 l -3.0877,-1.31894 -3.2854,1.43846 c -30.361,13.29292 -60.8752,26.65034 -91.3881,40.00719 v 0 c -30.226,-15.62318 -60.4371,-31.23836 -90.4809,-46.76407 l -4.9574,-2.56184 -5.2057,2.73972 c -30.0066,15.79238 -59.8462,31.49984 -89.3693,47.04622 v 0 c -29.8816,-18.11236 -59.4157,-36.00743 -88.4434,-53.58592 l -7.0991,-4.2989 -7.365,4.53346 c -29.6279,18.2381 -58.7274,36.16094 -87.1317,53.6691 -29.6324,-20.57281 -58.4593,-40.56911 -86.2836,-59.84778 l -9.3564,-6.4819 -9.5787,6.76494 c -29.5053,20.84087 -57.8757,40.90538 -84.878,60.03398 v 0 c -30.0663,-23.44287 -58.2811,-45.39239 -84.2942,-65.56618 l -11.4535,-8.87805 -11.4711,9.19271 c -32.0177,25.67055 -60.6296,48.71345 -85.1752,68.61894 -2.0199,1.6381 3.8046,21.20709 1.7847,22.84519 z m 0,46.41401 c 2.0199,-1.6381 19.9642,8.10228 21.9841,6.46418 21.6198,-17.53283 46.2727,-37.64976 73.5246,-59.981 v 0 c 25.9809,19.65985 54.0444,40.83546 83.863,63.2885 l 10.6075,7.98549 10.4529,-7.68367 c 27.0646,-19.89942 55.5585,-40.88668 85.2364,-62.77519 v 0 c 27.7606,18.37638 56.4868,37.37105 85.989,56.86265 l 8.4807,5.6026 8.226,-5.34235 c 28.4598,-18.48466 57.6391,-37.45176 87.3659,-56.78591 v 0 c 28.9846,16.55966 58.4587,33.38982 88.2675,50.405 l 6.2651,3.57611 6.0027,-3.36923 c 29.5517,-16.58735 59.4322,-33.36536 89.4887,-50.24537 v 0 c 30.0302,14.47678 60.2186,29.02709 90.4154,43.58131 l 4.2068,2.02761 3.9808,-1.87913 c 30.5113,-14.40273 61.0311,-28.80966 91.403,-43.14414 30.9776,12.19206 61.7896,24.32173 92.2716,36.32702 l 2.456,0.9673 2.2912,-0.87545 c 31.4044,-11.99933 62.4587,-23.85885 92.9812,-35.50596 v 0 c 31.8985,9.75309 63.2067,19.33577 93.7183,28.6884 l 1.1227,0.34414 1.0302,-0.30014 c 32.3552,-9.4259 63.8161,-18.57513 94.1348,-27.37103 33.0276,7.23307 64.6894,14.19253 94.6654,20.81425 l 0.2874,0.0635 0.2604,-0.0518 c 33.9102,-6.74391 65.6711,-13.01584 94.819,-18.71395 v 0 c 35.9763,4.87029 67.9479,9.29314 95.0397,13.17078 -27.1102,-3.88028 -59.0638,-8.60724 -94.9917,-14.02894 l -0.067,-0.0101 -0.073,0.0131 c -29.166,5.24521 -60.9646,10.90129 -94.9296,16.89547 v 0 c -29.945,-7.29193 -61.5634,-15.02638 -94.536,-23.11898 l -0.5817,-0.14277 -0.639,0.1683 c -30.3517,7.994 -61.8539,16.26941 -94.2589,24.76558 v 0 c -30.4835,-10.24387 -61.7575,-20.76785 -93.6151,-31.49861 l -1.6023,-0.53972 -1.7314,0.6061 c -30.5409,10.69114 -61.6186,21.56098 -93.0524,32.54935 v 0 c -30.4769,-13.00991 -61.279,-26.16438 -92.2405,-39.38965 l -3.0877,-1.31894 -3.2854,1.43846 c -30.361,13.29292 -60.8752,26.65034 -91.3881,40.00719 v 0 c -30.226,-15.62319 -60.4371,-31.23836 -90.4809,-46.76407 l -4.9574,-2.56184 -5.2057,2.73972 c -30.0066,15.79238 -59.8462,31.49983 -89.3693,47.04622 v 0 c -29.8816,-18.11236 -59.4157,-36.00743 -88.4434,-53.58592 l -7.0991,-4.2989 -7.365,4.53346 c -29.6279,18.2381 -58.7274,36.16094 -87.1317,53.6691 -29.6324,-20.57281 -58.4593,-40.56911 -86.2836,-59.84778 l -9.3564,-6.4819 -9.5787,6.76494 c -29.5053,20.84087 -57.8757,40.90538 -84.878,60.03398 v 0 c -30.0663,-23.44287 -58.2811,-45.39239 -84.2942,-65.56618 l -11.4535,-8.87805 -11.4711,9.19271 c -32.0177,25.67055 -60.6296,48.71345 -85.1752,68.61894 -2.0199,1.6381 3.8046,21.20709 1.7847,22.84519 z m 0,46.41401 c 2.0199,-1.6381 19.9642,8.10228 21.9841,6.46418 21.6198,-17.53283 46.2727,-37.64976 73.5246,-59.981 v 0 c 25.9809,19.65985 54.0444,40.83546 83.863,63.2885 l 10.6075,7.98549 10.4529,-7.68367 c 27.0646,-19.89943 55.5585,-40.88668 85.2364,-62.77519 v 0 c 27.7606,18.37638 56.4868,37.37105 85.989,56.86265 l 8.4807,5.6026 8.226,-5.34235 c 28.4598,-18.48466 57.6391,-37.45176 87.3659,-56.78591 v 0 c 28.9846,16.55966 58.4587,33.38982 88.2675,50.40499 l 6.2651,3.57612 6.0027,-3.36923 c 29.5517,-16.58735 59.4322,-33.36536 89.4887,-50.24537 v 0 c 30.0302,14.47678 60.2186,29.02709 90.4154,43.58131 l 4.2068,2.02761 3.9808,-1.87913 c 30.5113,-14.40273 61.0311,-28.80966 91.403,-43.14414 30.9776,12.19206 61.7896,24.32173 92.2716,36.32701 l 2.456,0.9673 2.2912,-0.87544 c 31.4044,-11.99933 62.4587,-23.85885 92.9812,-35.50596 v 0 c 31.8985,9.75309 63.2067,19.33577 93.7183,28.6884 l 1.1227,0.34414 1.0302,-0.30014 c 32.3552,-9.4259 63.8161,-18.57513 94.1348,-27.37103 33.0276,7.23307 64.6894,14.19253 94.6654,20.81425 l 0.2874,0.0635 0.2604,-0.0518 c 33.9102,-6.74391 65.6711,-13.01584 94.819,-18.71395 v 0 c 35.9763,4.87029 67.9479,9.29314 95.0397,13.17078 -27.1102,-3.88028 -59.0638,-8.60724 -94.9917,-14.02894 l -0.067,-0.0101 -0.073,0.0131 c -29.166,5.24522 -60.9646,10.9013 -94.9296,16.89548 v 0 c -29.945,-7.29193 -61.5634,-15.02638 -94.536,-23.11898 l -0.5817,-0.14277 -0.639,0.1683 c -30.3517,7.994 -61.8539,16.26941 -94.2589,24.76558 v 0 c -30.4835,-10.24387 -61.7575,-20.76785 -93.6151,-31.49861 l -1.6023,-0.53972 -1.7314,0.6061 c -30.5409,10.69114 -61.6186,21.56098 -93.0524,32.54935 v 0 c -30.4769,-13.00991 -61.279,-26.16438 -92.2405,-39.38965 l -3.0877,-1.31894 -3.2854,1.43846 c -30.361,13.29292 -60.8752,26.65034 -91.3881,40.00719 v 0 c -30.226,-15.62319 -60.4371,-31.23836 -90.4809,-46.76407 l -4.9574,-2.56184 -5.2057,2.73972 c -30.0066,15.79238 -59.8462,31.49983 -89.3693,47.04622 v 0 c -29.8816,-18.11236 -59.4157,-36.00743 -88.4434,-53.58592 l -7.0991,-4.2989 -7.365,4.53345 c -29.6279,18.23811 -58.7274,36.16095 -87.1317,53.66911 -29.6324,-20.57281 -58.4593,-40.56911 -86.2836,-59.84778 l -9.3564,-6.4819 -9.5787,6.76494 c -29.5053,20.84087 -57.8757,40.90538 -84.878,60.03398 v 0 c -30.0663,-23.44287 -58.2811,-45.39239 -84.2942,-65.56618 l -11.4535,-8.87805 -11.4711,9.19271 c -32.0177,25.67055 -60.6296,48.71345 -85.1752,68.61894 -2.0199,1.6381 3.8046,21.20709 1.7847,22.84519 z"
         id="use24"
         inkscape:linked-fill="path21"
         sodipodi:nodetypes="ccccccccccccccccc"
         clip-path="url(#clipPath54)"
         transform="matrix(0.30131154,0,0,0.34651807,-543.27542,274.5532)" /></pattern><pattern
       inkscape:collect="always"
       xlink:href="#ZigZag"
       preserveAspectRatio="none"
       id="pattern9"
       patternTransform="matrix(0.055,0.0952628,-0.00866026,0.005,0,0)"
       x="0"
       y="0" /><pattern
       patternUnits="userSpaceOnUse"
       width="100"
       height="90"
       patternTransform="scale(0.2)"
       inkscape:stockid="Zig Zag"
       id="ZigZag"
       style="fill:#7062eb"
       x="0"
       y="0"
       preserveAspectRatio="none"
       inkscape:collect="always"
       inkscape:isstock="true"
       inkscape:label="Zig zag"><path
         style="opacity:1;fill-opacity:1;stroke:none;stroke-width:1;stroke-dasharray:none"
         d="M 50,90 0,40 V 10 L 50,60 100,10 V 40 L 50,90"
         id="zigzag-path-pattern"
         sodipodi:nodetypes="ccccccc" /></pattern><linearGradient
       id="linearGradient4"
       inkscape:collect="always"><stop
         style="stop-color:#96b20f;stop-opacity:1;"
         offset="0"
         id="stop4" /><stop
         style="stop-color:#daf265;stop-opacity:1;"
         offset="1"
         id="stop5" /></linearGradient><linearGradient
       id="linearGradient1"><stop
         style="stop-color:#d4a414;stop-opacity:1;"
         offset="0"
         id="stop1" /><stop
         style="stop-color:#f5db8f;stop-opacity:1;"
         offset="1"
         id="stop2" /></linearGradient><linearGradient
       xlink:href="#linearGradient1"
       id="linearGradient2"
       x1="97.174644"
       y1="220.31342"
       x2="142.86453"
       y2="61.444332"
       gradientUnits="userSpaceOnUse" /><linearGradient
       xlink:href="#linearGradient1"
       id="linearGradient3"
       gradientUnits="userSpaceOnUse"
       x1="102.10376"
       y1="80.023285"
       x2="110.25655"
       y2="47.794483"
       gradientTransform="rotate(6.3103222,172.42809,124.42243)" /><radialGradient
       inkscape:collect="always"
       xlink:href="#linearGradient4"
       id="radialGradient5"
       cx="61.912567"
       cy="78.333153"
       fx="61.912567"
       fy="78.333153"
       r="29.731579"
       gradientTransform="matrix(1.1885609,-0.39252858,0.36634604,1.1092811,-38.747646,19.162184)"
       gradientUnits="userSpaceOnUse" /></defs><g
     id="layer1"
     transform="translate(-3.698516,-34.919822)"
     style="display:none"><path
       style="fill:#000000"
       d="m 92.549443,227.62792 c -0.509322,-0.0587 -2.116666,-0.23442 -3.571874,-0.39056 C 63.275507,224.47952 38.791325,210.48519 23.04965,189.55517 12.848789,175.99218 6.6391724,160.70179 4.2995369,143.38538 3.7315597,139.1816 3.5049333,128.29465 3.8892164,123.67393 5.918004,99.279214 16.672711,77.09205 34.473403,60.578174 47.914922,48.108345 64.767004,39.666501 82.75986,36.389666 c 7.658035,-1.394672 18.50592,-1.859612 26.19375,-1.122665 16.27369,1.559979 30.63488,6.572586 44.05312,15.37624 21.99863,14.433203 37.07277,36.98274 41.92232,62.711939 1.05979,5.62266 1.36741,8.76762 1.51966,15.53622 0.17066,7.58717 -0.10425,12.01004 -1.13935,18.33044 -6.03167,36.82976 -33.00613,66.9303 -69.08688,77.09339 -3.9983,1.12623 -9.12427,2.17508 -13.82929,2.82969 -2.89222,0.4024 -17.464196,0.75708 -19.843747,0.483 z"
       id="path1" /><path
       d="m 58.57649,65.340444 c 0.937545,-0.750838 1.153942,-1.089443 1.249711,-1.955473 0.07314,-0.661417 -0.05679,-1.324954 -0.352598,-1.800584 -0.43966,-0.70694 -0.604139,-0.768197 -2.678605,-0.997598 -2.051089,-0.226817 -2.235266,-0.293806 -2.558654,-0.930585 -0.398938,-0.785552 -0.04611,-1.54057 0.896522,-1.918446 0.571762,-0.229205 1.436088,0.157197 1.557426,0.696302 0.03553,0.157867 0.220374,0.190829 0.451319,0.08048 0.321181,-0.153464 0.303341,-0.344351 -0.09975,-1.067285 -0.269988,-0.484218 -0.666217,-0.899785 -0.88051,-0.923482 -0.74331,-0.0822 -2.023204,0.58789 -2.504939,1.311459 -0.649386,0.975382 -0.701205,1.754884 -0.189419,2.849376 0.460416,0.984634 0.641114,1.053666 3.237091,1.236671 1.501545,0.10585 1.657302,0.172535 2.005811,0.858791 0.464877,0.915391 0.01463,1.856884 -1.056228,2.208658 -0.595105,0.19549 -0.777023,0.13576 -1.24047,-0.407292 -0.298701,-0.350007 -0.624221,-0.645349 -0.723377,-0.656314 -0.338839,-0.03747 -0.271636,0.800669 0.119097,1.48536 0.573772,1.005435 1.452431,0.983199 2.767572,-0.07004 z m 4.038729,-2.292698 c 0.230441,-0.289151 -0.103556,-1.259974 -1.395726,-4.056927 -0.934263,-2.022249 -1.856029,-3.760415 -2.04837,-3.862592 -0.660848,-0.35106 -2.377812,0.90232 -1.956581,1.428298 0.0771,0.09627 0.349298,0.03731 0.604881,-0.131117 0.577295,-0.380365 0.732586,-0.139765 2.623388,4.064564 0.750467,1.668714 1.478109,3.012395 1.616981,2.985956 0.138871,-0.02644 0.388814,-0.21912 0.555427,-0.428182 z m 2.93853,-1.292769 c 0.19922,-0.160981 1.011595,-0.520351 1.805277,-0.798603 1.548902,-0.543019 2.011709,-1.290356 1.535199,-2.47903 -0.347464,-0.866761 -0.79191,-0.761411 -0.693348,0.164349 0.07758,0.728655 -0.02872,0.850281 -1.257298,1.438614 l -1.342042,0.642666 -1.388345,-3.528002 c -0.770446,-1.957825 -1.57239,-3.586529 -1.80187,-3.659504 -0.477503,-0.151844 -2.226804,0.744523 -2.000239,1.024952 0.08325,0.103044 0.454508,0.220868 0.825018,0.261841 0.596701,0.06598 0.829632,0.478793 2.039046,3.613689 0.750964,1.946558 1.489363,3.555514 1.640886,3.575457 0.15152,0.01998 0.438495,-0.09545 0.637716,-0.256429 z m 6.42362,-2.575609 c 0.851426,-0.28566 2.071507,-0.695629 2.711291,-0.911039 l 1.163245,-0.391657 0.280673,-1.833196 0.280672,-1.833193 1.144824,-0.366818 1.144823,-0.366817 0.703408,1.249698 c 0.971087,1.725263 1.467692,2.024369 2.555803,1.539364 1.063924,-0.474227 1.100691,-0.893121 0.08821,-1.005085 -0.922255,-0.101989 -1.286415,-0.609331 -3.07054,-4.277862 -1.06664,-2.193235 -1.452444,-2.751935 -1.890646,-2.737937 -0.589562,0.01884 -0.774352,0.668853 -1.738882,6.116725 -0.213706,1.207052 -0.455689,2.248404 -0.537742,2.314117 -0.08205,0.06571 -0.127376,-0.07776 -0.100719,-0.318824 0.02666,-0.241065 -0.126085,-0.457603 -0.339427,-0.481195 -0.288594,-0.03191 -0.370275,0.158529 -0.319063,0.743924 0.06386,0.729956 -0.03452,0.825597 -1.36153,1.323396 l -1.430363,0.536576 -0.387473,-1.317159 c -1.866738,-6.345707 -2.130847,-6.76174 -3.680644,-5.797892 -0.875835,0.544699 -0.828955,1.040588 0.08655,0.915522 0.552168,-0.07544 0.701002,0.182082 1.519692,2.629389 0.499164,1.492157 1.016884,3.174306 1.150487,3.73811 0.133603,0.563803 0.296102,1.030979 0.361108,1.038167 0.065,0.0072 0.814814,-0.220651 1.66624,-0.506313 z m 4.572786,-7.410763 c 0.0853,-0.771409 0.244314,-1.474011 0.353359,-1.561338 0.109039,-0.08732 0.464485,0.439853 0.789874,1.171512 l 0.591614,1.33029 -0.615218,0.258081 c -1.120649,0.47011 -1.28473,0.294464 -1.119629,-1.198545 z m 66.348785,13.846982 c 0.0141,-0.126995 -0.21492,-0.431907 -0.5088,-0.677575 l -0.53435,-0.446673 1.12091,-2.116343 c 0.61651,-1.16399 1.46207,-2.64363 1.87904,-3.288092 0.94174,-1.455575 0.97186,-1.698202 0.22102,-1.781232 -0.4024,-0.0445 -1.45304,0.622976 -3.221,2.046307 l -2.62381,2.112349 0.25457,-3.50568 0.25458,-3.505678 -0.95724,-0.351943 c -1.10041,-0.404582 -1.60611,-0.187901 -0.95443,0.408955 0.54037,0.494899 0.40827,0.846975 -1.34175,3.576155 -1.56017,2.433112 -1.73075,2.603669 -2.51698,2.516725 -0.96924,-0.107184 -0.89513,-0.498988 0.85163,-4.502627 0.95843,-2.19673 1.23483,-3.074763 1.04325,-3.313981 -0.48766,-0.608926 -1.03228,-0.126018 -1.68414,1.493306 -1.20233,2.986859 -2.85352,4.766622 -4.27628,4.609289 -1.55198,-0.171624 -1.53403,-1.459018 0.064,-4.584813 1.29754,-2.538091 1.4417,-2.950042 1.15689,-3.305684 -0.32164,-0.401627 -2.24576,-0.637079 -2.28529,-0.279648 -0.016,0.144638 0.15215,0.28302 0.37364,0.307514 0.70869,0.07837 0.60874,0.688118 -0.46942,2.863873 -1.3156,2.654877 -1.61017,4.519012 -0.83752,5.300046 0.83282,0.841857 2.3775,0.883712 3.50384,0.09494 l 0.94779,-0.663745 -0.13411,1.213181 c -0.13011,1.176768 -0.10716,1.221655 0.7663,1.495581 0.49526,0.155327 1.13874,0.387941 1.42998,0.51693 0.64099,0.283912 1.06482,-0.178428 2.70585,-2.951737 l 1.14933,-1.942332 -0.44131,3.345572 c -0.24271,1.840065 -0.37974,3.352211 -0.30428,3.360352 0.0754,0.0082 1.31082,-0.929759 2.74549,-2.084195 1.43467,-1.154436 2.63943,-2.060327 2.67726,-2.013089 0.0379,0.04724 -0.45779,1.06504 -1.10141,2.26178 -1.32125,2.456796 -1.47009,3.071788 -0.85389,3.528234 0.53118,0.393465 1.86592,0.578837 1.90074,0.263976 z M 87.541747,55.313776 c 1.089597,-0.308954 1.315495,-0.699369 1.256626,-2.171808 -0.072,-1.800789 -0.213309,-1.947761 -1.588651,-1.652295 -1.396071,0.299919 -1.931106,0.955597 -0.670228,0.821355 0.686425,-0.07308 0.819036,0.0061 0.900176,0.537308 0.258523,1.692589 -0.103705,2.065107 -1.82318,1.874961 -2.036844,-0.225241 -3.417239,-3.838382 -2.305428,-6.034388 0.88819,-1.754317 3.565968,-2.097195 4.083141,-0.522827 0.445635,1.356591 0.967667,0.453023 0.587393,-1.016701 -0.159153,-0.615115 -0.334272,-0.719786 -1.401734,-0.837829 -2.61761,-0.289464 -4.515904,1.332782 -4.824442,4.122876 -0.430211,3.890376 2.011798,5.949612 5.786327,4.879348 z m 4.228559,-0.57834 c 0.733843,-0.136877 1.705977,-0.207761 2.160298,-0.15752 1.086399,0.120138 1.503068,-0.253746 1.637493,-1.469338 0.131093,-1.185468 -0.265945,-1.371133 -0.630246,-0.294717 -0.269485,0.796257 -0.465385,0.877771 -2.304821,0.959026 -1.121491,0.04954 -1.13572,0.03967 -1.050722,-0.728963 0.04739,-0.428551 0.05505,-1.134913 0.01701,-1.569694 -0.06685,-0.764095 -0.0258,-0.794024 1.228312,-0.895678 0.939909,-0.07619 1.338417,-0.238796 1.446056,-0.590052 0.12571,-0.410225 0.03558,-0.469445 -0.585397,-0.384615 -2.316143,0.316406 -2.193699,0.39042 -2.281428,-1.379062 l -0.07971,-1.607732 0.790042,-0.06911 c 1.41785,-0.124036 1.762025,0.0083 1.858503,0.71453 0.142827,1.045509 0.548059,0.846849 0.678489,-0.332619 0.06921,-0.625934 -0.01652,-1.129222 -0.209315,-1.22875 -0.356555,-0.184062 -3.630873,0.08099 -4.82851,0.390865 -0.922389,0.238657 -1.026267,0.708044 -0.177465,0.801907 0.692089,0.07653 0.777865,0.614705 0.917765,5.758159 0.03495,1.284933 0.06711,2.33534 0.07147,2.334238 0.0043,-0.0012 0.608338,-0.113995 1.342179,-0.250871 z m 31.231984,0.861207 c 0.56695,-1.762218 0.63415,-1.853552 1.23504,-1.678572 1.19083,0.346773 2.15904,0.390741 2.29439,0.104197 0.077,-0.1631 -0.28519,-0.409444 -0.84296,-0.573255 -1.91157,-0.56141 -1.84908,-0.462042 -1.32046,-2.099363 0.4312,-1.335553 0.53407,-1.459722 1.10795,-1.337337 1.54601,0.329705 1.78805,0.51861 1.69878,1.325857 -0.0477,0.431161 0.0247,0.796244 0.16077,0.811294 0.34218,0.03784 0.49303,-0.196841 0.82296,-1.280393 l 0.28518,-0.936516 -1.7688,-0.473576 c -3.59634,-0.962881 -4.23263,-1.061671 -4.27661,-0.663975 -0.0226,0.204132 0.22104,0.43841 0.54138,0.520618 0.68025,0.174576 0.69848,0.03763 -0.52601,3.953288 -0.87521,2.798826 -0.98973,3.018357 -1.54274,2.957204 -0.74097,-0.08194 -1.43511,-0.976491 -2.08251,-2.683755 -0.27333,-0.720797 -0.49156,-1.359286 -0.48498,-1.418866 0.007,-0.05957 0.38911,-0.217818 0.85003,-0.351639 1.61627,-0.469254 2.31661,-2.402046 1.30141,-3.591616 -0.53826,-0.630726 -0.84277,-0.733032 -2.86332,-0.961979 -1.57818,-0.178847 -2.3059,-0.160672 -2.40971,0.06011 -0.0849,0.180624 0.0674,0.340206 0.35534,0.372039 0.27723,0.03066 0.5565,0.121242 0.62062,0.20131 0.10366,0.129437 -0.6907,3.825475 -1.46702,6.82584 -0.26937,1.041053 -0.24968,1.103723 0.36805,1.172033 0.61215,0.0677 0.67627,-0.03668 1.03372,-1.682511 0.20959,-0.965076 0.45247,-1.850494 0.53972,-1.967598 0.0873,-0.117098 0.52001,0.709377 0.96171,1.836625 0.97595,2.490745 1.32501,2.859718 2.65044,2.801679 0.60075,-0.0263 0.99129,0.06281 0.97367,0.222164 -0.0162,0.146349 0.24368,0.296289 0.57747,0.3332 0.54232,0.05998 0.67069,-0.131175 1.20645,-1.796507 z m -5.87315,-5.823109 c 0.18613,-0.830716 0.45344,-1.610856 0.59399,-1.733649 0.44582,-0.389528 1.6259,0.384739 1.81261,1.189279 0.23877,1.028827 -0.72777,2.077245 -1.90293,2.064147 l -0.84212,-0.0094 z m -13.78431,2.819232 0.21428,-1.937726 1.10824,-0.02572 c 1.43989,-0.0334 2.44261,-0.834859 2.78894,-2.229149 0.34659,-1.395281 -0.12757,-2.370072 -1.33108,-2.736544 -1.25546,-0.382291 -4.65881,-0.156309 -4.71068,0.312828 -0.0248,0.224465 0.19245,0.368694 0.55797,0.370397 0.58861,0.0027 0.59502,0.07043 0.38265,4.038395 -0.19786,3.696084 -0.17426,4.040219 0.2797,4.090421 0.44076,0.04874 0.51944,-0.15994 0.70998,-1.882909 z m 0.49821,-4.505291 c 0.21326,-1.928521 0.23272,-1.970736 0.87557,-1.899648 1.25257,0.138513 1.89646,1.652611 1.24196,2.920474 -0.21013,0.407019 -1.53723,1.039817 -2.0596,0.982052 -0.1682,-0.0186 -0.19083,-0.801089 -0.0579,-2.002878 z m 9.17619,7.118233 c 0.47682,-0.381874 0.79556,-1.889483 0.40852,-1.932283 -0.12143,-0.01346 -0.38829,0.256533 -0.59303,0.599911 -0.33165,0.55622 -0.53065,0.606809 -1.82429,0.463755 l -1.45203,-0.16057 0.15666,-1.380206 c 0.086,-0.759135 0.25673,-1.489141 0.37905,-1.622281 0.12228,-0.133144 0.81402,-0.176437 1.53718,-0.09621 0.99365,0.110241 1.32551,0.04952 1.35848,-0.248599 0.0285,-0.25816 -0.22818,-0.432115 -0.74292,-0.503408 -2.07687,-0.287648 -1.97651,-0.180538 -1.78573,-1.905787 l 0.17449,-1.577882 0.89893,0.09941 c 1.29967,0.143722 1.70474,0.427721 1.62598,1.139973 -0.0424,0.384072 0.0841,0.646314 0.32488,0.672936 0.29219,0.03231 0.42839,-0.263189 0.52533,-1.139789 l 0.13084,-1.183412 -2.07098,-0.229015 c -2.30827,-0.255257 -3.73799,-0.199203 -3.7764,0.148058 -0.0141,0.126556 0.22823,0.258161 0.53829,0.292449 0.55788,0.06169 0.55765,0.104249 -0.0225,4.11256 l -0.58618,4.050222 1.86402,0.297333 c 1.02521,0.163535 2.0009,0.336269 2.16818,0.383857 0.1673,0.0476 0.51069,-0.07887 0.76312,-0.281026 z"
       style="fill:url(#linearGradient3)"
       id="path1-7"
       sodipodi:nodetypes="sssssssssssssssssssssssscsssssssscssssscssscccccssssssssssscssssssssssscsssscsssscccssssssssssssssscsssscssssssssssssssssssssssssssssssscssssssscscscsssssscsssssssssccssssscsssscccsssccscssssssssssssscssscccsssscsssscsssscsscc" /><path
       d="m 90.047523,203.98623 c 4.14561,-0.46232 7.902439,-1.06314 8.141329,-1.30203 0.283387,-0.28339 -0.15579,-0.44096 -4.090569,-1.46758 -18.657784,-4.86796 -33.377899,-13.01059 -42.428476,-23.46988 -7.487683,-8.65313 -11.412576,-18.11625 -12.438346,-29.98948 -0.79826,-9.23983 1.142963,-21.205 4.988633,-30.74857 0.571731,-1.41883 0.940019,-2.57969 0.818418,-2.57969 -0.29427,0 -3.039054,4.12453 -4.41016,6.62705 -2.572316,4.69495 -4.630846,11.04036 -5.4976,16.94632 -0.664625,4.52868 -0.416739,12.961 0.508711,17.30476 2.211373,10.37945 7.259455,19.81799 14.701982,27.48869 5.389467,5.5547 10.82252,9.52253 17.613367,12.86327 6.131482,3.01637 12.149421,4.85831 19.446875,5.9522 4.776536,0.71601 3.602056,0.84572 -2.4049,0.26561 C 61.837009,199.64028 45.591411,191.25852 35.760322,176.47379 32.515772,171.5944 29.8734,165.38117 28.27758,158.879 c -1.495312,-6.09265 -1.86235,-9.53422 -1.86235,-17.4625 0,-6.33217 0.148508,-8.58968 0.835457,-12.7 0.284112,-1.69996 -0.360515,-0.50767 -1.467675,2.71459 -6.823987,19.86041 -1.497011,41.64102 13.810825,56.46884 9.676099,9.37268 22.334532,15.18249 35.9016,16.47766 3.305898,0.31559 9.772234,0.14169 14.552086,-0.39136 z m 35.189587,2.5e-4 c 19.33679,-2.84594 35.89091,-14.6753 44.0554,-31.48144 3.80348,-7.82923 5.42168,-14.88341 5.42168,-23.63455 0,-5.5788 -0.5421,-9.74576 -1.88187,-14.46544 -0.77482,-2.72951 -2.17314,-6.4823 -2.41535,-6.4823 -0.11593,0 -0.15007,0.26789 -0.0759,0.59532 0.86719,3.82678 1.31367,11.87466 0.96045,17.31246 -2.18248,33.59887 -22.54248,52.79783 -59.55819,56.16181 -4.8015,0.43636 -5.88294,0.30043 -2.11667,-0.26604 7.97076,-1.19886 13.46468,-2.86323 19.97604,-6.05171 10.76847,-5.27309 19.29074,-12.86248 25.30145,-22.53184 10.84513,-17.44645 10.78559,-39.29426 -0.15235,-55.90336 -1.48625,-2.25684 -2.57755,-3.48194 -2.14992,-2.41351 4.43203,11.07347 6.22114,20.26784 5.8936,30.28758 -0.22642,6.92671 -1.28018,12.28915 -3.53691,17.99888 -6.56893,16.61998 -21.62629,28.77799 -44.80274,36.17581 -2.25557,0.71997 -5.61909,1.70427 -7.47448,2.18734 -1.85539,0.48308 -3.373444,0.9663 -3.373444,1.07384 0,0.2921 4.112824,0.97749 8.598964,1.43301 2.18281,0.22164 4.445,0.45171 5.02708,0.51125 2.03397,0.20808 9.54818,-0.10165 12.30313,-0.50711 z m -15.47813,-8.96185 c 5.89736,-1.08363 12.24789,-3.4179 16.93334,-6.22422 12.22392,-7.32145 20.41283,-18.82978 23.20495,-32.61122 0.52914,-2.61174 0.60755,-3.78405 0.60755,-9.08414 0,-6.84067 -0.37973,-9.50043 -2.12797,-14.90499 -1.17652,-3.63714 -4.14467,-9.54451 -6.40318,-12.74397 -2.30754,-3.26891 -8.43164,-9.39467 -11.70948,-11.71265 -3.04474,-2.15315 -9.35981,-5.40702 -12.43541,-6.40742 l -2.24896,-0.73151 -0.89774,-1.885141 c -2.20296,-4.625932 -7.68117,-7.829084 -13.38976,-7.829084 -5.670097,0 -11.323617,3.298839 -13.473117,7.861584 l -0.773114,1.641071 -2.137305,0.70492 c -13.361479,4.40684 -24.678554,14.77065 -29.870112,27.35406 -6.256526,15.16471 -4.67196,31.84445 4.300657,45.27034 7.917132,11.84654 20.622061,19.66298 35.206104,21.65981 2.74976,0.3765 12.461017,0.14833 15.213547,-0.35744 z m -12.558367,-2.30209 c -14.46647,-1.39268 -27.817214,-10.09502 -35.151115,-22.91236 -2.770756,-4.8424 -4.703669,-10.52494 -5.488706,-16.13616 -0.589844,-4.21603 -0.396766,-11.25514 0.41222,-15.02846 1.354814,-6.31919 4.080416,-12.62237 7.61139,-17.60197 2.285148,-3.22266 7.423792,-8.36131 10.646452,-10.64645 5.009505,-3.55218 11.239577,-6.23854 17.738069,-7.64852 2.38186,-0.5168 3.55918,-0.60195 8.455687,-0.61157 4.90487,-0.01 6.0988,0.072 8.66653,0.59241 9.69876,1.96573 17.46862,6.25052 24.4343,13.4746 14.73764,15.28435 16.71861,38.73896 4.77942,56.58824 -9.20918,13.76788 -25.58692,21.52036 -42.104247,19.93024 z m 12.674407,-4.99826 c 7.70902,-1.63962 14.45688,-5.13994 19.97351,-10.36087 6.48334,-6.13582 10.48591,-13.35784 12.22931,-22.06588 0.66786,-3.33585 0.66786,-11.46162 0,-14.79747 -0.95685,-4.77934 -2.83026,-9.6535 -5.19008,-13.50335 -1.34053,-2.18696 -4.06474,-5.71501 -5.39521,-6.98719 l -0.9431,-0.90178 -0.77397,0.63719 c -0.42568,0.35046 -2.30557,1.927 -4.17753,3.50343 -4.72325,3.9776 -9.35195,7.44124 -11.17201,8.36001 -3.09644,1.56308 -7.00297,2.03428 -10.07892,1.2157 -3.44974,-0.91805 -7.418747,-3.61837 -10.172967,-6.9212 -0.83316,-0.99912 -1.97554,-2.36533 -2.53863,-3.03602 -1.86271,-2.21868 -5.54084,-4.18331 -8.603953,-4.5957 -2.098575,-0.28253 -2.140245,-0.33265 -1.019177,-1.22603 2.465796,-1.96499 8.68684,-4.42688 15.04669,-5.95452 l 3.174997,-0.76264 -2.513547,-0.0819 c -6.33788,-0.20645 -13.670893,2.15767 -18.917705,6.09897 l -1.852083,1.39125 1.785938,0.0782 c 0.982265,0.043 1.785937,0.1623 1.785937,0.26504 0,0.10274 -0.524222,0.4649 -1.164938,0.8048 -1.449117,0.76875 -4.309606,3.62783 -5.883952,5.88104 -2.57284,3.68227 -5.478645,9.82592 -7.375016,15.59276 -0.550311,1.67349 -1.115082,3.16177 -1.255048,3.30729 -0.364297,0.37876 -0.0045,-3.41511 0.620617,-6.54411 1.254451,-6.27909 4.279849,-12.03369 8.853015,-16.83931 l 2.209896,-2.32222 -1.58646,0.21696 c -2.111658,0.28879 -2.537722,0.55118 -4.552257,2.80357 -11.109742,12.42147 -13.461297,30.54136 -5.873833,45.26079 6.141371,11.91405 17.858881,20.13594 31.353809,22.00019 3.115503,0.43039 10.903847,0.14289 14.006667,-0.51705 z m 0.9423,-88.252007 c -5.43132,-1.198926 -14.457667,-1.184699 -19.956107,0.0314 -0.57312,0.12676 -0.60261,0.095 -0.2766,-0.297807 0.787,-0.94828 3.50994,-2.831466 5.34166,-3.694305 4.536087,-2.136737 8.965957,-1.661151 13.338817,1.432044 1.50298,1.063154 3.67859,3.005368 3.25537,2.906148 -0.0636,-0.0149 -0.83002,-0.1848 -1.70314,-0.37754 z m -3.68069,-9.994992 c 0.84372,-0.981765 0.84349,-2.2965 -5.7e-4,-3.277784 l -0.63855,-0.742358 h -5.0729 -5.072907 l -0.63855,0.742358 c -1.08474,1.261088 -0.6798,3.288095 0.77882,3.89857 0.31185,0.130518 2.690933,0.211265 5.286847,0.179439 l 4.71983,-0.05787 z m -3.46306,-5.240261 c 5.09323,-0.166527 9.31995,-0.357 9.39271,-0.423273 0.0728,-0.06627 0.13229,-1.390497 0.13229,-2.942719 0,-2.463977 -0.08,-2.973357 -0.63052,-4.012847 -1.50037,-2.833165 -3.94672,-4.836087 -7.13502,-5.841714 -2.45698,-0.774962 -6.383864,-0.777162 -8.810597,-0.0049 -3.19753,1.017509 -5.64186,3.021117 -7.13271,5.84665 -0.53989,1.02324 -0.62825,1.562591 -0.62849,3.836458 -1.6e-4,1.553828 0.13756,2.958958 0.33369,3.404507 l 0.33396,0.758673 2.44213,-0.159011 c 1.34317,-0.08746 6.609316,-0.295261 11.702557,-0.461788 z"
       style="fill:url(#linearGradient2)"
       id="path1-4" /></g><g
     inkscape:groupmode="layer"
     id="layer2"
     inkscape:label="Layer 1"><path
       style="fill:url(#radialGradient5);fill-opacity:1;stroke-width:0.426586;stroke-linecap:round"
       d="m 52.036767,54.510864 c 0,0 7.011917,-3.801079 17.942587,-3.952894 0,0 18.258162,-0.307252 28.126128,7.131676 0,0 -11.016299,2.581398 -11.775373,14.878402 L 98.58135,103.53774 c 0,0 -22.773656,-14.223107 -47.823107,-6.328734 L 39.118193,75.404489 C 40.788157,67.054672 52.036767,54.510864 52.036767,54.510864 Z"
       id="path2"
       sodipodi:nodetypes="cccccccc"
       inkscape:export-filename="C:\Users\leno\Desktop\Desktop\proyectos\Plug-in\icons\icon.png"
       inkscape:export-xdpi="96"
       inkscape:export-ydpi="96" /><path
       style="fill:url(#pattern9);fill-opacity:1;stroke-width:0.426586;stroke-linecap:round;stroke:#809519;stroke-opacity:1"
       d="m 51.391555,54.469115 c 0,0 7.011917,-3.801079 17.942587,-3.952894 0,0 18.258162,-0.307252 28.126128,7.131676 0,0 -11.016299,2.581398 -11.775373,14.878402 l 12.251241,30.969691 c 0,0 -22.773656,-14.223106 -47.823107,-6.328733 L 38.472981,75.36274 C 40.142945,67.012923 51.391555,54.469115 51.391555,54.469115 Z"
       id="path2-4"
       sodipodi:nodetypes="cccccccc" /><path
       style="fill:url(#pattern10);fill-opacity:1;stroke:none;stroke-width:0.426586;stroke-linecap:round;stroke-opacity:1"
       d="m 52.210121,54.508435 c 0,0 7.011917,-3.801079 17.942587,-3.952894 0,0 18.258162,-0.307252 28.126128,7.131676 0,0 -11.016299,2.581398 -11.775373,14.878402 l 12.251241,30.969691 c 0,0 -22.773656,-14.223106 -47.823107,-6.328733 L 39.291547,75.40206 C 40.961511,67.052243 52.210121,54.508435 52.210121,54.508435 Z"
       id="path2-4-5"
       sodipodi:nodetypes="cccccccc" /><path
       id="path3"
       style="fill:#9a73fa;stroke-width:0.370999;stroke-linecap:round;fill-opacity:0.90196079"
       d="m 74.692739,53.74264 c 0,0 4.403024,30.970172 1.214912,54.34966 0,0 4.326338,1.66989 6.375839,0.60719 -3.491742,-14.270597 0,-20.039602 0,-20.039602 2.580853,-1.897686 8.501806,0 8.501806,0 0,0 7.590566,12.145402 9.412344,20.950662 1.89769,0.83498 7.28742,-0.60772 7.28742,-0.60772 C 100.80521,100.04575 80.00645,57.689476 80.461895,54.653179 77.729228,51.616882 74.692739,53.74264 74.692739,53.74264 Z m 6.680212,19.128548 c 1.442241,0.151815 7.286894,10.930599 7.286894,10.930599 0,0 -3.339769,2.049501 -6.679696,0 0,0 -1.897624,-8.729284 -0.607198,-10.930599 z"
       sodipodi:nodetypes="ccccccccccccc" /><path
       style="fill:#8123a6;fill-opacity:0.99215686;stroke-width:0.370999;stroke-linecap:round"
       d="m 65.850812,63.139722 c 0,0 -7.121349,-5.198542 -10.019781,-4.554447 0,0 -4.955944,1.152944 -9.357266,5.232218 0,0 -4.735469,7.792802 -3.661976,13.911713 0,0 3.385702,12.120451 8.967866,15.44828 5.045418,2.791082 16.595446,-4.269234 16.595446,-4.269234 l -1.472374,5.428499 c 0,0 -5.691589,5.716869 -17.285315,4.965429 C 41.888262,93.183269 39.493442,88.013162 37.346456,79.854614 35.628867,71.803415 41.9009,61.029571 41.9009,61.029571 c 0,0 5.434278,-5.79948 13.807524,-7.946466 8.051199,0.644095 9.476714,6.216781 9.476714,6.216781 z"
       id="path4"
       sodipodi:nodetypes="ccccccccccccc" /></g><metadata
     id="metadata3"><rdf:RDF><cc:Work
         rdf:about=""><dc:title>sillage_perfum</dc:title></cc:Work></rdf:RDF></metadata></svg>
